<?xml version="1.0" standalone="no"?><!DOCTYPE svg PUBLIC "-//W3C//DTD SVG 1.1//EN" "http://www.w3.org/Graphics/SVG/1.1/DTD/svg11.dtd"><svg t="1560163762448" class="icon" style="" viewBox="0 0 1024 1024" version="1.1" xmlns="http://www.w3.org/2000/svg" p-id="2010" xmlns:xlink="http://www.w3.org/1999/xlink" width="200" height="200"><defs><style type="text/css"></style></defs><path d="M936.831196 923.623895l-204.41053-204.40746c30.595832-33.958416 54.747905-72.486918 71.907727-114.802676 19.09387-47.084365 28.7723-96.826256 28.774347-147.851373-0.002047-51.02614-9.680477-100.772124-28.774347-147.854443-19.772322-48.756447-48.812729-92.494601-86.317924-129.99775-37.501102-37.502126-81.239256-66.543555-129.99775-86.316901-47.084365-19.092847-96.827279-28.7723-147.851373-28.7723-51.025117 0-100.770078 9.679453-147.853419 28.7723-48.756447 19.771299-92.495624 48.813752-129.999796 86.316901-37.502126 37.503149-66.542532 81.241302-86.313831 129.99775-19.094894 47.083341-28.774347 96.828302-28.77537 147.854443 0.001023 51.025117 9.680477 100.768031 28.773324 147.851373 19.772322 48.756447 48.812729 92.495624 86.315878 129.99775 37.504172 37.502126 81.243349 66.544579 129.999796 86.317924 47.084365 19.0908 96.828302 28.7723 147.853419 28.774347 51.024094-0.002047 100.770078-9.683547 147.851373-28.774347 42.315758-17.158798 80.843236-41.309848 114.802676-71.906703l204.40746 204.408483c8.176217 8.176217 21.431102 8.17417 29.609365-0.002047C945.00332 945.054997 945.00639 931.800112 936.831196 923.623895zM440.160323 806.832935c-93.562932-0.002047-181.52531-36.433794-247.680009-102.591563-66.156746-66.156746-102.592586-154.119123-102.594633-247.678986 0-93.562932 36.436864-181.524287 102.594633-247.680009 66.154699-66.157769 154.117077-102.59361 247.680009-102.594633 93.561909 0.001023 181.521217 36.435841 247.680009 102.594633 66.156746 66.155722 102.59054 154.117077 102.59054 247.680009 0 93.559862-36.433794 181.521217-102.59054 247.678986C621.68154 770.399141 533.722232 806.832935 440.160323 806.832935z" p-id="2011"></path></svg>