<?xml version="1.0" standalone="no"?><!DOCTYPE svg PUBLIC "-//W3C//DTD SVG 1.1//EN" "http://www.w3.org/Graphics/SVG/1.1/DTD/svg11.dtd"><svg t="1560913725218" class="icon" style="" viewBox="0 0 1024 1024" version="1.1" xmlns="http://www.w3.org/2000/svg" p-id="3855" xmlns:xlink="http://www.w3.org/1999/xlink" width="16" height="16"><defs><style type="text/css"></style></defs><path d="M609.7 110.6l77 164.3c62 132.3-31.3 286.5-177.4 289.8-1.7 0-3.3 0.1-5 0.1-1.7 0-3.4 0-5.1-0.1-145.9-3.4-239.3-157.3-177.5-289.6l76.9-164.6h211.6" fill="#D4F8F5" opacity=".67" p-id="3856"></path><path d="M593.8 862.1h-56.2V539.6h-66.1v322.5H415c-27.6 0-50 22.4-50 50h-0.2 279c-0.1-27.6-22.4-50-50-50z" fill="#D4F8F5" opacity=".67" p-id="3857"></path><path d="M499.2 563.6c1.7 0 3.4 0.1 5.1 0.1 1.7 0 3.3 0 5-0.1 144.4-3.3 237.3-154 179.5-285.2h-369C262 409.6 354.9 560.3 499.2 563.6z" fill="#FE6853" p-id="3858"></path><path d="M686.7 275l-77-164.3h-32.2c22.3 81.3 22.8 168.6 1.2 250.2C559 435.4 520.9 505 469 561.9c9.8 1.7 19.9 2.7 30.2 3 1.7 0 3.4 0.1 5.1 0.1 1.7 0 3.3 0 5-0.1 146.1-3.4 239.4-157.7 177.4-289.9z" fill="#5A2818" opacity=".1" p-id="3859"></path><path d="M696 269.1l-76.4-164.3c0-0.1-0.1-0.1-0.1-0.2-0.1-0.2-0.2-0.5-0.4-0.7-0.1-0.1-0.2-0.3-0.3-0.4-0.1-0.2-0.2-0.4-0.4-0.5-0.1-0.2-0.2-0.3-0.4-0.5-0.1-0.1-0.2-0.3-0.3-0.4-0.1-0.2-0.3-0.3-0.5-0.5l-0.3-0.3-0.5-0.5c-0.1-0.1-0.3-0.2-0.4-0.3-0.2-0.1-0.3-0.3-0.5-0.4-0.2-0.1-0.3-0.2-0.5-0.3-0.2-0.1-0.3-0.2-0.5-0.3l-0.6-0.3c-0.2-0.1-0.3-0.2-0.5-0.2l-0.6-0.3c-0.2-0.1-0.3-0.1-0.5-0.2s-0.4-0.1-0.6-0.2c-0.2-0.1-0.4-0.1-0.5-0.1-0.2 0-0.4-0.1-0.6-0.1-0.2 0-0.4-0.1-0.7-0.1H396.8c-0.2 0-0.4 0-0.5 0.1-0.2 0-0.4 0.1-0.6 0.1-0.2 0-0.4 0.1-0.6 0.1-0.2 0-0.3 0.1-0.5 0.1-0.2 0.1-0.4 0.1-0.7 0.2-0.2 0.1-0.3 0.1-0.5 0.2l-0.6 0.3c-0.2 0.1-0.3 0.1-0.5 0.2l-0.6 0.3c-0.2 0.1-0.3 0.2-0.5 0.3-0.2 0.1-0.3 0.2-0.5 0.3-0.2 0.1-0.3 0.2-0.5 0.4-0.1 0.1-0.3 0.2-0.4 0.3-0.2 0.1-0.3 0.3-0.5 0.5l-0.3 0.3-0.5 0.5c-0.1 0.1-0.2 0.3-0.3 0.4-0.1 0.2-0.2 0.3-0.4 0.5-0.1 0.2-0.2 0.4-0.4 0.5-0.1 0.1-0.2 0.3-0.3 0.4-0.1 0.2-0.2 0.5-0.4 0.7 0 0.1-0.1 0.1-0.1 0.2l-76.9 164.5c-31 66.5-26.4 143.4 12.3 205.9 31 50 80.3 84.3 136.4 96.3v277.7H416c-33.9 0-61.4 28-61.2 62.2 0 6.6 5.5 11.9 12.2 11.9h274.2c6.7 0 12.1-5.5 12.1-12.2v-1c-0.5-33.7-27.8-60.9-61.2-60.9h-43.3V730.6c0-6.2-4.5-11.8-10.6-12.5-7.3-0.9-13.6 4.9-13.6 12.1V846h-41.9V576.7h41.9v94.4c0 6.2 4.5 11.8 10.6 12.5 7.3 0.9 13.6-4.9 13.6-12.1v-99.9c55.5-12 104.4-46.3 135.1-96.4 38.6-62.5 43.1-139.6 12.1-206.1z m-67.6 630.1H380.2c5.1-15 19-25.8 35.3-25.8H593c16.4 0 30.3 10.8 35.4 25.8zM405.9 121.9h196.4L670.4 267H338.1l67.8-145.1z m259 340.7c-33.8 54.6-92.1 88-155.8 89.5-3.2 0.1-6.4 0.1-9.5 0-63.7-1.5-122-34.9-155.8-89.5-32.2-51.9-37.9-115.1-15.8-171.4h352.8c21.9 56.3 16.3 119.5-15.9 171.4z" p-id="3860"></path></svg>